<svg xmlns="http://www.w3.org/2000/svg" width="64" height="64" viewBox="0 0 64 64">
  <!-- Sailboat glyph from Lucide (lucide.dev), ISC license. Generated by scripts/generateFavicons.mjs -->
  <rect width="64" height="64" rx="14" fill="#156cdd"/>
  <g transform="translate(12.799999999999997 12.799999999999997) scale(1.6)" stroke="#fff" stroke-linecap="round" stroke-linejoin="round">
    <path d="M10 2v15" fill="none" stroke-width="2"/>
    <path d="M7 22a4 4 0 0 1-4-4 1 1 0 0 1 1-1h16a1 1 0 0 1 1 1 4 4 0 0 1-4 4z" fill="#fff" stroke-width="0.5"/>
    <path d="M9.159 2.46a1 1 0 0 1 1.521-.193l9.977 8.98A1 1 0 0 1 20 13H4a1 1 0 0 1-.824-1.567z" fill="#fff" stroke-width="0.5"/>
  </g>
</svg>
